<?xml version="1.0" standalone="no"?>
<!DOCTYPE svg PUBLIC "-//W3C//DTD SVG 20010904//EN"
 "http://www.w3.org/TR/2001/REC-SVG-20010904/DTD/svg10.dtd">
<svg version="1.0" xmlns="http://www.w3.org/2000/svg"
 width="532.000000pt" height="532.000000pt" viewBox="0 0 532.000000 532.000000"
 preserveAspectRatio="xMidYMid meet">
<metadata>
Created by potrace 1.14, written by Peter Selinger 2001-2017
</metadata>
<g transform="translate(0.000000,532.000000) scale(0.100000,-0.100000)"
fill="#000000" stroke="none">
<path d="M418 4711 c-145 -47 -269 -174 -312 -320 -21 -71 -21 -211 0 -282 43
-148 168 -274 315 -320 82 -26 216 -26 298 0 147 46 272 172 315 320 21 71 21
211 0 282 -43 148 -168 274 -315 320 -81 25 -222 25 -301 0z"/>
<path d="M1762 4550 c-67 -41 -72 -60 -72 -300 0 -240 5 -259 72 -300 33 -20
54 -20 1688 -20 1634 0 1655 0 1688 20 67 41 72 60 72 300 0 240 -5 259 -72
300 -33 20 -54 20 -1688 20 -1634 0 -1655 0 -1688 -20z"/>
<path d="M418 3111 c-145 -47 -269 -174 -312 -320 -21 -71 -21 -211 0 -282 43
-148 168 -274 315 -320 82 -26 216 -26 298 0 147 46 272 172 315 320 21 71 21
211 0 282 -43 148 -168 274 -315 320 -81 25 -222 25 -301 0z"/>
<path d="M1762 2950 c-67 -41 -72 -60 -72 -300 0 -240 5 -259 72 -300 33 -20
54 -20 1688 -20 1634 0 1655 0 1688 20 67 41 72 60 72 300 0 240 -5 259 -72
300 -33 20 -54 20 -1688 20 -1634 0 -1655 0 -1688 -20z"/>
<path d="M418 1511 c-145 -47 -269 -174 -312 -320 -21 -71 -21 -211 0 -282 43
-148 168 -274 315 -320 82 -26 216 -26 298 0 147 46 272 172 315 320 21 71 21
211 0 282 -43 148 -168 274 -315 320 -81 25 -222 25 -301 0z"/>
<path d="M1762 1350 c-67 -41 -72 -60 -72 -300 0 -240 5 -259 72 -300 33 -20
54 -20 1688 -20 1634 0 1655 0 1688 20 67 41 72 60 72 300 0 240 -5 259 -72
300 -33 20 -54 20 -1688 20 -1634 0 -1655 0 -1688 -20z"/>
</g>
</svg>
